<svg xmlns="http://www.w3.org/2000/svg" viewBox="0 0 64 80" x="0px" y="0px"><title>hamburger, more, options, menu</title><g data-name="04"><path d="M57,30H7a2,2,0,0,0,0,4H57a2,2,0,0,0,0-4Z"/><path d="M7,19H57a2,2,0,0,0,0-4H7a2,2,0,0,0,0,4Z"/><path d="M57,45H7a2,2,0,0,0,0,4H57a2,2,0,0,0,0-4Z"/></g><text x="0" y="79" fill="#000000" font-size="5px" font-weight="bold" font-family="'Helvetica Neue', Helvetica, Arial-Unicode, Arial, Sans-serif">Created by Kantor Tegalsari</text><text x="0" y="84" fill="#000000" font-size="5px" font-weight="bold" font-family="'Helvetica Neue', Helvetica, Arial-Unicode, Arial, Sans-serif">from the Noun Project</text></svg>